<svg width="32" height="32" viewBox="0 0 32 32" fill="none" xmlns="http://www.w3.org/2000/svg">
<path d="M22.2763 23.237H29.598L19.7296 6.18828L16.1219 12.1501L18.8955 17.1396L22.2763 23.237Z" fill="#3C10EE"/>
<path d="M3.02819 31.251L0.202119 26.4055C-0.0661872 25.9455 -0.0674463 25.3794 0.198811 24.9182L7.63535 12.0372L13.9658 0.769856C14.5427 -0.256975 16.038 -0.256526 16.6143 0.770649L19.3284 5.60839C19.5926 6.07933 19.5801 6.65428 19.2957 7.11362L16.9986 10.8228L5.66779 31.2237C5.09978 32.2464 3.61771 32.2618 3.02819 31.251Z" fill="white"/>
<path d="M23.8896 23.237H29.5666L31.8013 27.1363C32.3726 28.1333 31.6435 29.3685 30.4836 29.3685H14.4448C13.2927 29.3685 12.5627 28.1483 13.1185 27.1516L14.8697 24.011C15.136 23.5335 15.6441 23.237 16.196 23.237H23.8896Z" fill="#2CA4FE"/>
</svg>
