<svg xmlns="http://www.w3.org/2000/svg" width="256" height="256" fill="none" viewBox="0 0 256 256"><g clip-path="url(#a)"><path fill="#336AEA" d="M256 208.001c0 26.51-21.49 48-48 48H48c-26.51 0-48-21.49-48-48v-160C0 21.49 21.49 0 48 0h160c26.51 0 48 21.49 48 48v160.001Z"/><path fill="#FAF6E7" d="M108 203.001c0 2.76-2.24 5-5 5H53c-2.76 0-5-2.24-5-5V189c0-2.76 2.24-5 5-5h50c2.76 0 5 2.24 5 5v14.001Zm95-119c2.76 0 5-2.24 5-5V53c0-2.76-2.24-5-5-5H53c-2.76 0-5 2.24-5 5v110c0 2.76 2.24 5 5 5h50c2.76 0 5-2.24 5-5v-14c0-2.76 2.24-5 5-5h90c2.76 0 5-2.24 5-5v-26c0-2.76-2.24-5-5-5h-90c-2.76 0-5-2.24-5-5V89c0-2.76 2.24-5 5-5h90Z"/></g><defs><clipPath id="a"><path fill="#fff" d="M0 0h256v256.001H0z"/></clipPath></defs></svg>