<svg width="30" height="30" viewBox="0 0 30 30" fill="none" xmlns="http://www.w3.org/2000/svg">
<circle cx="15" cy="15" r="15" fill="black"/>
<path fill-rule="evenodd" clip-rule="evenodd" d="M16.0501 14.4601C15.8301 14.156 15.6737 13.931 15.5217 13.6949C15.1144 13.0847 14.9949 12.4204 15.1155 11.68L15.1244 11.6325C15.1676 11.4262 15.2343 11.2263 15.3231 11.0332C15.4071 10.8515 15.5098 10.6786 15.6287 10.5171C15.7815 10.3096 15.9606 10.1214 16.1723 9.94759C16.8807 9.38519 17.7189 9.2068 18.6572 9.31621C19.2845 9.38936 19.8091 9.54713 20.7141 9.88308L20.0845 11.7932C18.5876 11.2376 17.8482 11.1498 17.3211 11.5629C17.2484 11.6235 17.1843 11.6913 17.1314 11.7631C17.0926 11.8157 17.0604 11.87 17.036 11.9227C17.0159 11.9665 17.0007 12.0096 16.9904 12.052C16.9584 12.2677 16.9823 12.3833 17.0919 12.5466C17.2214 12.7481 17.3602 12.9478 17.5629 13.228C17.5419 13.199 17.8495 13.6223 17.9342 13.7409C18.2988 14.2511 18.5427 14.6363 18.7494 15.0595C19.0171 15.6074 19.186 16.163 19.2501 16.774C19.2727 17.0153 19.2768 17.2564 19.2617 17.4966C19.2297 18.0005 19.113 18.4947 18.9094 18.9717C18.8164 19.1897 18.7039 19.3977 18.5737 19.5937C18.2025 20.1529 17.6938 20.6065 17.0982 20.925C16.8696 21.0472 16.6297 21.1487 16.3563 21.2361C14.5324 21.7627 12.4969 21.1882 11.227 19.7589L12.6146 18.3707C13.391 19.2447 14.6911 19.614 15.8425 19.2872C15.9809 19.242 16.1141 19.1852 16.2401 19.1179C16.5631 18.9451 16.829 18.708 17.0148 18.4282C17.0765 18.3352 17.1291 18.2381 17.1722 18.137C17.2815 17.8808 17.3423 17.6234 17.359 17.361C17.3669 17.2361 17.3648 17.1091 17.3531 16.98C17.2853 16.3471 17.0282 15.822 16.4147 14.9636C16.3355 14.8527 16.0335 14.4371 16.0501 14.4601ZM14.0165 10.3252V15.3039H15.1831V17.3275H12.1095V10.3252H14.0165ZM9.85861 16.1749C10.5696 16.1749 11.1458 15.5633 11.1458 14.8088C11.1458 14.0544 10.5696 13.4429 9.85861 13.4429C9.14752 13.4429 8.57129 14.0544 8.57129 14.8088C8.57129 15.5633 9.14752 16.1749 9.85861 16.1749Z" fill="white"/>
</svg>
