<svg xmlns="http://www.w3.org/2000/svg" xmlns:xlink="http://www.w3.org/1999/xlink" width="68" height="68" viewBox="0 0 68 68">
  <defs>
    <linearGradient id="icon-a" x1="34.897%" x2="50%" y1="4.939%" y2="100%">
      <stop offset="0%" stop-color="#B000EE"/>
      <stop offset="100%" stop-color="#EE008D"/>
    </linearGradient>
    <path id="icon-b" d="M34.0000002,6 C44.0768252,6 54.1536501,12.9988853 64.2304749,26.9966559 C67.2565013,31.2001294 67.2565094,36.799889 64.230493,41.0033693 C54.1537402,55.0011231 44.0769093,62 34.0000002,62 C23.9230905,62 13.8462591,55.0011224 3.76950582,41.0033672 C0.743490363,36.7998856 0.743498553,31.2001255 3.76952744,26.9966531 C13.8463515,12.9988844 23.9231758,6 34.0000002,6 Z M23.0906486,44.5640677 C29.1157171,50.4342751 38.8842832,50.4342751 44.9093517,44.5640677 C50.9344202,38.6938603 50.9344202,29.1763735 44.9093517,23.3061661 C38.8842832,17.4359587 29.1157171,17.4359587 23.0906486,23.3061661 C17.0655801,29.1763735 17.0655801,38.6938603 23.0906486,44.5640677 Z"/>
    <filter id="icon-c" width="106.2%" height="107.1%" x="-3.1%" y="-3.6%" filterUnits="objectBoundingBox">
      <feGaussianBlur in="SourceAlpha" result="shadowBlurInner1" stdDeviation="1.5"/>
      <feOffset dy="1" in="shadowBlurInner1" result="shadowOffsetInner1"/>
      <feComposite in="shadowOffsetInner1" in2="SourceAlpha" k2="-1" k3="1" operator="arithmetic" result="shadowInnerInner1"/>
      <feColorMatrix in="shadowInnerInner1" values="0 0 0 0 0   0 0 0 0 0   0 0 0 0 0  0 0 0 0.181951993 0"/>
    </filter>
  </defs>
  <g fill="none">
    <use fill="url(#icon-a)" xlink:href="#icon-b"/>
    <use fill="#000" filter="url(#icon-c)" xlink:href="#icon-b"/>
  </g>
</svg>
