<svg width="56" height="56" viewBox="0 0 56 56" fill="none" xmlns="http://www.w3.org/2000/svg">
<g opacity="0.3">
<mask id="path-1-inside-1_223_3" fill="white">
<path d="M56 28C56 43.464 43.464 56 28 56C12.536 56 0 43.464 0 28C0 12.536 12.536 0 28 0C43.464 0 56 12.536 56 28ZM12.4297 28C12.4297 36.5993 19.4007 43.5703 28 43.5703C36.5993 43.5703 43.5703 36.5993 43.5703 28C43.5703 19.4007 36.5993 12.4297 28 12.4297C19.4007 12.4297 12.4297 19.4007 12.4297 28Z"/>
</mask>
<path d="M56 28C56 43.464 43.464 56 28 56C12.536 56 0 43.464 0 28C0 12.536 12.536 0 28 0C43.464 0 56 12.536 56 28ZM12.4297 28C12.4297 36.5993 19.4007 43.5703 28 43.5703C36.5993 43.5703 43.5703 36.5993 43.5703 28C43.5703 19.4007 36.5993 12.4297 28 12.4297C19.4007 12.4297 12.4297 19.4007 12.4297 28Z" stroke="white" style="stroke:white;stroke-opacity:1;" stroke-width="6" mask="url(#path-1-inside-1_223_3)"/>
</g>
</svg>
