<svg width="86" height="67" viewBox="0 0 86 67" fill="none" xmlns="http://www.w3.org/2000/svg">
<path d="M57.3128 1.25925V33.3476V65.436L83.9481 33.3476L57.3128 1.25925Z" fill="#00B4D8"/>
<path d="M57.3128 1.25925L30.7797 33.3476H57.3128V1.25925Z" fill="black"/>
<path d="M1.69531 33.3476L30.7797 65.436H57.3128L30.7797 33.3476H1.69531Z" fill="#C5BEFF"/>
<path d="M30.7797 33.3476L57.3128 65.436V33.3476H30.7797Z" fill="#FF5263"/>
<path d="M30.7797 1.25925L1.69531 33.3476H30.7797L57.3128 1.25925H30.7797Z" fill="#5A45FF"/>
<path d="M1.69531 33.3476L30.7797 1.25925H57.3128M1.69531 33.3476L30.7797 65.436H57.3128M1.69531 33.3476H30.7797M30.7797 33.3476L57.3128 1.25925M30.7797 33.3476L57.3128 65.436M30.7797 33.3476H57.3128M57.3128 1.25925V33.3476M57.3128 1.25925L83.9481 33.3476L57.3128 65.436M57.3128 65.436V33.3476" stroke="black" stroke-width="2"/>
</svg>
