<svg xmlns="http://www.w3.org/2000/svg" width="512" height="512" viewBox="0 0 512 512" fill="none">
<path fill-rule="evenodd" clip-rule="evenodd" d="M153.328 156C162.445 150.243 168.5 140.079 168.5 128.5C168.5 110.551 153.949 96 136 96C118.051 96 103.5 110.551 103.5 128.5C103.5 138.907 108.391 148.171 116 154.119V156V376V416H156V376H389.501C398.613 376 406 368.613 406 359.501C406 357.193 405.516 354.91 404.578 352.8L366 266L404.578 179.199C405.516 177.09 406 174.807 406 172.499C406 163.387 398.613 156 389.501 156H153.328Z" fill="#418FDE"/>
</svg>